<?xml version="1.0" encoding="UTF-8" standalone="no"?>
<!-- Created with Inkscape (http://www.inkscape.org/) -->

<svg
   width="210mm"
   height="297mm"
   viewBox="0 0 210 297"
   version="1.1"
   id="svg1"
   inkscape:version="1.4 (e7c3feb100, 2024-10-09)"
   sodipodi:docname="home.svg"
   xmlns:inkscape="http://www.inkscape.org/namespaces/inkscape"
   xmlns:sodipodi="http://sodipodi.sourceforge.net/DTD/sodipodi-0.dtd"
   xmlns="http://www.w3.org/2000/svg"
   xmlns:svg="http://www.w3.org/2000/svg">
  <sodipodi:namedview
     id="namedview1"
     pagecolor="#ffffff"
     bordercolor="#000000"
     borderopacity="0.25"
     inkscape:showpageshadow="2"
     inkscape:pageopacity="0.0"
     inkscape:pagecheckerboard="0"
     inkscape:deskcolor="#d1d1d1"
     inkscape:document-units="mm"
     inkscape:zoom="0.61865249"
     inkscape:cx="783.15372"
     inkscape:cy="753.25002"
     inkscape:window-width="1920"
     inkscape:window-height="1043"
     inkscape:window-x="1920"
     inkscape:window-y="0"
     inkscape:window-maximized="1"
     inkscape:current-layer="layer1" />
  <defs
     id="defs1" />
  <g
     inkscape:label="Layer 1"
     inkscape:groupmode="layer"
     id="layer1">
    <path
       style="fill:#800000;stroke-width:0.264583"
       id="path1"
       d="m 46.604549,151.94189 c -0.13109,-4.70641 -0.06953,-9.41586 -0.0045,-14.12294 0.263999,-9.92764 0.321744,-19.85814 0.441143,-29.78803 0.0149,-4.7692 0.195418,-9.535357 0.455432,-14.296746 0,0 -3.383772,-1.73941 -3.383772,-1.73941 v 0 c -0.08407,4.829093 -0.136274,9.659016 -0.102658,14.488906 -0.03054,9.91861 -0.192437,19.83667 -0.501306,29.75069 -0.163891,4.63714 -0.349504,9.27396 -0.425334,13.9135 z" />
    <path
       style="fill:#800000;stroke-width:0.264583"
       id="path2"
       d="m 48.660052,95.1335 c 11.29161,-0.88691 22.619303,-1.098203 33.939244,-1.303253 7.680735,-0.101452 15.362269,-0.141181 23.043644,-0.136527 0,0 -2.91687,-2.116635 -2.91687,-2.116635 v 0 c -7.554203,0.09346 -15.10748,0.229044 -22.659911,0.420314 -11.516661,0.243512 -23.034802,0.468165 -34.546301,0.891246 z" />
    <path
       style="fill:#800000;stroke-width:0.264583"
       id="path3"
       d="m 103.00295,91.850209 c 0.0677,4.762629 0.41554,9.514181 0.69931,14.267341 0.48916,7.11748 1.11081,14.22471 1.54535,21.34595 0.27861,4.54962 0.35905,9.10666 0.41452,13.66325 0.0305,3.96046 0.0216,7.92112 -0.0208,11.88145 -0.0118,1.46147 -0.0613,2.92259 -0.0679,4.38408 -5.3e-4,0.13462 -0.001,0.26924 -0.001,0.40385 0,0 3.51992,1.7938 3.51992,1.7938 v 0 c -2.7e-4,-0.13495 -5.3e-4,-0.2699 -8e-4,-0.40485 -0.004,-1.48224 -0.0466,-2.96425 -0.0547,-4.44648 -0.0319,-3.97247 -0.0269,-7.94502 -0.0414,-11.91757 -0.0281,-4.58368 -0.15641,-9.16736 -0.51726,-13.73839 -0.50162,-7.11871 -1.1394,-14.22762 -1.56758,-21.35117 -0.19773,-4.69355 -0.59898,-9.392617 -0.39565,-14.092104 z" />
    <path
       style="fill:#800000;stroke-width:0.264583"
       id="path4"
       d="m 34.278316,108.96948 c 1.216887,-3.18757 3.220301,-5.98301 5.107111,-8.7985 2.148864,-3.144479 4.680157,-5.982323 7.36346,-8.674003 2.526147,-2.396585 5.000575,-4.846241 7.504409,-7.26616 2.900709,-3.024497 5.576869,-6.262584 8.163417,-9.557371 2.785732,-3.471746 5.527482,-6.976335 8.27423,-10.478622 2.500299,-3.077927 4.98022,-6.17814 7.324357,-9.377521 0.695367,-0.998948 1.344049,-2.025962 1.954697,-3.078086 0,0 -3.364082,-1.935927 -3.364082,-1.935927 v 0 c -0.568251,1.058357 -1.188172,2.083546 -1.868369,3.074977 -2.322409,3.206004 -4.699425,6.376966 -7.251377,9.405115 -2.748176,3.497111 -5.490596,6.998282 -8.230457,10.501828 -2.624722,3.251668 -5.335365,6.44357 -8.224591,9.463982 -2.498982,2.425848 -5.007761,4.841393 -7.492987,7.281365 -2.695845,2.715122 -5.253101,5.555067 -7.385272,8.744992 -1.899036,2.827961 -3.888552,5.630861 -5.298427,8.744421 z" />
    <path
       style="fill:#800000;stroke-width:0.264583"
       id="path5"
       d="m 76.723533,51.493943 c 1.988883,3.582273 4.568131,6.780102 7.104009,9.981523 3.935362,4.649573 7.789349,9.359426 11.464483,14.218044 3.08904,3.981048 5.726145,8.27687 8.292855,12.604218 1.74531,2.891478 3.15026,5.963491 4.31895,9.127257 0.7206,2.137841 1.38494,4.293315 2.0906,6.436295 0.37768,1.07886 0.7687,2.15541 1.2304,3.20161 0.47446,0.94654 0.77088,1.96518 1.12951,2.95805 0.51659,1.69041 1.06828,3.36857 1.6228,5.04677 0.32342,0.99423 0.6356,1.9917 0.96066,2.98546 0,0 3.54667,1.66594 3.54667,1.66594 v 0 c -0.33683,-0.99652 -0.67266,-1.9923 -0.98518,-2.99685 -0.55936,-1.67461 -1.12697,-3.34509 -1.59927,-5.04721 -0.36023,-0.99264 -0.6213,-2.02152 -1.078,-2.97553 -0.51975,-1.02247 -0.88569,-2.11838 -1.30476,-3.18388 -0.72852,-2.15668 -1.43398,-4.31967 -2.15596,-6.47844 -1.1511,-3.208782 -2.59447,-6.30967 -4.3651,-9.226405 -2.60683,-4.349197 -5.24299,-8.692507 -8.38158,-12.687112 C 94.95574,72.28882 91.139631,67.584256 87.246051,62.937127 84.746369,59.807199 82.189478,56.681668 80.302782,53.129296 Z" />
    <path
       style="fill:#800000;stroke-width:0.264583"
       id="path6"
       d="m 86.237899,151.20819 c -1.127781,-3.67416 -1.857976,-7.44485 -2.467732,-11.23454 -0.500337,-3.19353 -0.71883,-6.41832 -0.806577,-9.64642 0.05313,-1.29798 -0.260506,-2.8018 0.424638,-3.9963 0.124936,-0.21781 0.300344,-0.4025 0.450517,-0.60375 1.233323,-1.48504 3.002139,-1.97863 4.822713,-2.31223 1.916669,-0.27126 3.859266,-0.26795 5.7911,-0.2597 1.250259,0.0497 2.462392,0.3569 3.677745,0.62761 0.0045,0.002 1.090041,0.35949 1.114224,0.36998 0.168743,0.0732 0.644552,0.35475 0.484436,0.26422 -0.950973,-0.53767 -1.876631,-1.12381 -2.857055,-1.60569 -0.191146,-0.0939 0.326668,0.27527 0.47026,0.43257 0.156265,0.17118 0.284115,0.36629 0.426169,0.54943 1.069089,1.86729 1.261732,4.0392 1.446046,6.1399 0.148934,2.51065 0.225885,5.03012 0.09326,7.54241 -0.219739,2.949 -0.629156,5.87877 -1.006666,8.81036 -0.13867,1.08205 -0.265181,2.16539 -0.378102,3.2504 0,0 3.489765,1.81528 3.489765,1.81528 v 0 c 0.0711,-1.09578 0.16659,-2.18977 0.28812,-3.28119 0.33798,-2.94437 0.75726,-5.88016 1.01036,-8.83366 0.18425,-2.52429 0.0757,-5.06005 -0.0548,-7.58586 -0.1705,-2.14474 -0.3488,-4.33422 -1.29671,-6.30175 -0.12383,-0.18512 -0.61813,-0.97155 -0.83106,-1.10945 -1.892018,-1.22524 -3.440791,-2.31097 -5.52113,-2.8323 -1.222095,-0.27302 -2.451182,-0.54723 -3.711139,-0.54354 -1.941219,0.0239 -3.896714,0.0132 -5.817303,0.33127 -1.947318,0.40356 -3.674785,0.95699 -4.99654,2.54158 -0.16931,0.22757 -0.365739,0.43727 -0.507924,0.6827 -0.72954,1.25927 -0.444341,2.79527 -0.448172,4.16977 0.114006,3.26482 0.380122,6.52342 0.904973,9.75028 0.613772,3.74609 1.320271,7.47673 2.239081,11.15963 z" />
    <path
       style="fill:#800000;stroke-width:0.264583"
       id="path7"
       d="m 94.323317,135.14718 c -1.170691,-0.0314 -2.381893,-0.38676 -3.534616,-0.0826 -0.09598,0.0668 -0.221795,0.10386 -0.287939,0.20026 -0.548991,0.80012 0.413597,1.74759 0.918271,2.25326 1.413211,1.12541 3.08955,1.89609 4.685697,2.70808 0.391499,0.19917 1.038262,0.18423 1.467943,0.22411 1.048739,-0.0571 1.552908,-0.10175 2.048192,-1.0897 0.182991,-1.04839 -0.181459,-1.97886 -0.784487,-2.81612 -1.180452,-1.22533 -2.976226,-1.86261 -4.372877,-2.64222 0,0 3.10165,2.45101 3.10165,2.45101 v 0 c -5.560119,-3.27164 -3.481031,-2.14542 -2.35697,-1.35628 0.621991,0.68047 1.004208,1.46561 0.973503,2.40761 -0.368554,0.76112 -1.001816,0.71297 -1.772433,0.69247 -0.366183,-0.0491 -0.569069,-0.0657 -0.930315,-0.15773 -0.159771,-0.0407 -0.611029,-0.23474 -0.473054,-0.14448 5.282904,3.45595 3.249258,1.90173 2.050056,1.21242 -0.179351,-0.15161 -1.428737,-1.31969 -1.225916,-1.58938 0.04563,-0.0607 0.137232,-0.065 0.205846,-0.0975 1.14381,-0.17982 2.315538,0.11184 3.458295,0.18461 z" />
    <path
       style="fill:#800000;stroke-width:0.264583"
       id="path8"
       d="m 49.759396,107.52495 c 0.646753,2.64176 1.120105,5.32279 1.738984,7.97274 0.5803,2.42688 1.285415,4.84134 2.420697,7.07092 0.540187,1.03295 1.338077,1.83807 2.255724,2.53433 1.557692,1.19096 3.293504,2.06912 5.044117,2.97473 0.258694,0.13382 1.175689,0.28149 1.42598,0.32821 1.312703,0.0412 2.688063,0.0962 3.981754,-0.19593 0.711322,-0.16063 1.198258,-0.39296 1.866667,-0.66769 1.492784,-0.56726 2.446647,-1.28381 3.38228,-2.55623 1.004255,-1.88293 1.395867,-4.02572 1.776616,-6.1063 0.326538,-1.75 0.484505,-3.51355 0.401164,-5.29063 -0.187965,-1.78242 -0.931844,-2.80827 -2.13636,-4.06894 -2.187675,-1.94619 -4.754078,-3.61818 -7.576079,-4.45536 -1.851678,-0.35386 -3.744219,-0.34972 -5.621951,-0.36331 -1.606383,0.0469 -3.224869,-0.0941 -4.826601,0.0547 -1.266195,0.12175 -2.304002,0.9315 -3.285429,1.67333 -0.361465,0.26955 -0.625898,0.62488 -0.886177,0.98579 0,0 3.408477,2.01005 3.408477,2.01005 v 0 c 0.230944,-0.33328 0.471559,-0.65223 0.802404,-0.89665 0.938988,-0.72203 1.930474,-1.42282 3.157281,-1.489 1.584674,-0.10641 3.177437,-0.0317 4.764466,-0.056 1.864323,0.0245 3.755511,0.0194 5.575707,0.47491 1.336821,0.46345 3.768032,1.88665 -1.181015,-0.95778 -0.253328,-0.1456 0.503282,0.29778 0.744667,0.46242 0.233556,0.1593 0.458166,0.33173 0.678804,0.50849 0.221973,0.17783 0.432221,0.36982 0.648333,0.55473 1.157396,1.14542 2.015585,2.13307 2.239624,3.80748 0.118324,1.75467 -0.01572,3.50001 -0.310608,5.23473 -0.356965,2.01951 -0.7488,4.10391 -1.744594,5.91856 -0.87313,1.16018 -1.864418,1.87978 -3.236764,2.39378 -1.927968,0.74739 -3.674819,0.93588 -5.733206,0.66349 -0.250412,-0.0602 -0.504245,-0.10772 -0.751239,-0.18073 -0.216972,-0.0641 -0.82731,-0.35481 -0.638575,-0.23005 5.225989,3.45476 2.860008,1.71572 1.699805,0.9159 -0.954939,-0.62289 -1.784151,-1.40112 -2.373839,-2.38686 -1.233371,-2.17647 -1.939856,-4.59468 -2.535565,-7.01307 -0.624078,-2.62452 -1.155502,-5.26444 -1.597676,-7.9254 z" />
    <path
       style="fill:#800000;stroke-width:0.264583"
       id="path9"
       d="m 57.880204,105.71017 c 0.570789,1.52154 1.053743,3.07351 1.482516,4.64055 0.376468,1.62546 0.67265,3.27041 0.846564,4.92998 0.157342,1.85477 0.174593,3.71755 0.175553,5.5778 -0.05711,1.22881 0.02114,2.44632 0.145273,3.66754 0.119983,0.95704 0.105116,1.92507 0.269679,2.87603 0.02178,0.10366 0.04357,0.20733 0.06536,0.31099 0,0 3.568178,1.7205 3.568178,1.7205 v 0 c -0.02418,-0.10246 -0.04839,-0.20493 -0.07259,-0.3074 -0.226071,-0.93731 -0.18737,-1.89955 -0.312124,-2.8531 -0.129423,-1.21381 -0.22511,-2.42292 -0.186065,-3.64562 -0.0249,-1.87199 -0.03816,-3.74547 -0.168037,-5.61391 -0.15594,-1.68163 -0.445775,-3.3422 -0.820968,-4.98911 -0.418388,-1.56895 -0.920088,-3.10969 -1.395881,-4.66112 z" />
    <path
       style="fill:#800000;stroke-width:0.264583"
       id="path10"
       d="m 54.147952,116.21369 c 2.126737,0.11483 4.242033,0.3579 6.367706,0.49922 2.07114,0.12241 4.145261,0.18374 6.219473,0.22154 0.929484,0.11908 1.768782,-0.0974 2.645992,-0.35639 0.681691,-0.19823 1.382713,-0.29853 2.089065,-0.34727 0.45129,-0.18582 0.922126,-0.28756 1.405359,-0.3417 0.1877,-0.0216 0.376044,-0.031 0.564729,-0.0367 0,0 -3.232264,-2.31877 -3.232264,-2.31877 v 0 c -0.193117,0.0171 -0.385892,0.0368 -0.577419,0.0677 -0.471405,0.0814 -0.923258,0.22739 -1.38907,0.32724 -0.717614,0.078 -1.426445,0.21272 -2.119053,0.41931 -0.840304,0.2375 -1.671407,0.35331 -2.549501,0.28284 -2.051095,-0.0165 -4.102508,-0.0631 -6.149721,-0.19733 -2.161765,-0.15566 -4.312952,-0.41804 -6.476619,-0.54552 z" />
    <path
       style="fill:#800000;stroke-width:0.264583"
       id="path11"
       d="m 89.770589,65.927326 c -0.05557,-0.449855 -0.052,-0.905909 -0.04197,-1.358513 -0.0052,-0.525854 -0.0084,-1.051976 -0.03796,-1.57711 -0.03302,-0.520629 -0.03969,-1.041927 -0.03574,-1.563418 -0.01453,-0.491228 -0.0131,-0.982665 0.01323,-1.473414 0.009,-0.50746 0.04484,-1.013756 0.06603,-1.520703 0.02684,-0.531225 0.04009,-1.063051 0.06653,-1.594316 0.02021,-0.26701 0.02283,-0.535448 0.05034,-0.801862 -0.06255,0.116851 0.02582,-0.115496 0.02918,-0.08555 0.0051,0.04558 -0.02598,0.09865 -0.0019,0.137594 0.04474,0.07186 0.504296,0.177371 0.575125,0.197093 0.607727,0.203888 1.201206,0.446164 1.801445,0.670327 0.463719,0.170532 0.934632,0.335368 1.417595,0.442879 0.07463,0.01902 0.1476,0.04654 0.223893,0.05709 0.109654,0.01516 0.221128,0.01132 0.331507,0.01974 0.45026,0.03431 0.899133,0.08769 1.348475,0.131918 0.336352,0.07783 0.68085,0.08206 1.021482,0.122941 0.403559,0.03482 0.804537,0.09308 1.208895,0.118015 0.274423,0.02088 0.549502,0.02746 0.82442,0.03749 0.02722,0.03754 0.09544,-0.02294 0.126516,0.0056 0.01307,0.01201 0.02188,0.06152 0.0064,0.05286 -1.139315,-0.636918 -2.279314,-1.273614 -3.396742,-1.948196 -0.02703,-0.01633 0.04773,-0.07049 0.07603,-0.05649 0.03093,0.01532 0.0109,0.06815 0.01635,0.102227 0.0021,0.06267 0.0073,0.125318 0.006,0.188005 -0.0065,0.31173 -0.03638,0.625227 -0.05524,0.936363 -0.04066,0.670576 -0.0024,0.156729 -0.05667,0.825746 -0.06555,0.74272 -0.142552,1.484501 -0.197741,2.228157 -0.03575,0.512623 -0.11085,1.021125 -0.163426,1.531985 -0.02891,0.45761 -0.02172,0.915541 -0.01288,1.373614 -5.29e-4,0.529018 0.0027,1.058066 -0.0041,1.587074 0.0062,0.52189 0.01548,1.043249 -0.01839,1.564343 -0.04556,0.404371 -0.05801,0.809774 -0.06126,1.216277 -0.0024,0.457959 0.0052,0.915937 -0.0075,1.373783 -0.0079,0.4192 0.0021,0.83852 0.0029,1.257805 -1.33e-4,0.361423 -0.01328,0.722619 -0.01738,1.083974 -0.0063,0.25413 -0.04307,0.506378 -0.0689,0.759053 -0.03172,0.265578 -0.006,0.532696 2.64e-4,0.799129 0.007,0.322111 -0.0053,0.64403 -0.01696,0.965853 -0.0082,0.143103 -0.01601,0.286425 -0.01609,0.429792 -0.0019,0.09025 -0.0052,0.180557 -0.0042,0.270835 0.0086,0.10971 -0.02299,0.214001 0.01439,0.31963 0.04065,0.0913 0.04747,0.19086 0.05751,0.288814 0.005,0.07929 0.0035,0.158676 0.0052,0.238046 -0.0016,0.06424 0.0016,0.0245 -0.0185,0.118218 0,0 3.597757,1.70479 3.597757,1.70479 v 0 c -0.04672,0.02646 -0.03553,0.03398 -0.03653,-0.01736 0.0019,-0.08605 0.0011,-0.172236 -7.94e-4,-0.258257 -5.29e-4,-0.121497 -0.01262,-0.242506 -0.02151,-0.36359 -0.0204,-0.109755 -0.04543,-0.06921 -0.05637,-0.08855 -0.01855,-0.03278 0.01302,-0.101168 0.0011,-0.1369 0.0011,-0.09173 -0.0024,-0.183489 -0.0042,-0.275191 -1.57e-4,-0.148982 -0.0084,-0.29791 -0.01654,-0.446638 -0.01185,-0.327141 -0.02492,-0.654402 -0.01712,-0.981837 0.0075,-0.252222 0.02848,-0.503187 0.02878,-0.755525 0.0087,-0.265764 0.03258,-0.530292 0.05696,-0.79502 -0.0042,-0.367335 -0.01722,-0.734515 -0.01762,-1.101916 5.29e-4,-0.418391 0.01024,-0.836819 0.0021,-1.255125 -0.01217,-0.45606 -0.0058,-0.912291 0.0035,-1.368361 0.01082,-0.404342 0.028,-0.808517 0.03871,-1.212861 0.02069,-0.527876 0.0231,-1.055598 0.02455,-1.583904 -0.0074,-0.530008 -0.0057,-1.060088 -0.0048,-1.590112 0.01132,-0.444219 0.01807,-0.888574 0.03784,-1.332447 0.01754,-0.523692 0.05968,-1.045445 0.08789,-1.568532 0.05545,-0.748117 0.07753,-1.498613 0.159067,-2.244733 0.05303,-0.63255 0.117081,-1.266946 0.267116,-1.885079 0.0085,-0.04278 0.01378,-0.08634 0.02556,-0.128334 0.01892,-0.06741 0.125145,-0.161163 0.06641,-0.199286 -1.111785,-0.72167 -2.294459,-1.327756 -3.44169,-1.991633 -0.06236,0.03502 -0.09585,0.04293 -0.167798,0.0393 -0.253154,0.0045 -0.506574,-0.0048 -0.759151,-0.02154 -0.406556,-0.03761 -0.811985,-0.08314 -1.216771,-0.136173 -0.328044,-0.02835 -0.65477,-0.07233 -0.984218,-0.0818 -0.635453,-0.02984 -1.271881,-0.08003 -1.881495,-0.276355 -0.46133,-0.132916 -0.916791,-0.283847 -1.365922,-0.45367 -0.606173,-0.220099 -1.207164,-0.456859 -1.82278,-0.6492 -0.417402,-0.119579 -0.90533,-0.331796 -1.045721,0.262551 -0.0072,0.05129 -0.02682,0.182282 -0.02837,0.23132 -0.0067,0.213291 0.03288,0.427948 0.02477,0.641448 0.0089,0.528709 -0.0021,1.057534 -0.04467,1.584796 -0.04385,0.505769 -0.03861,1.012534 -0.0786,1.51851 -0.02716,0.498483 -0.02228,0.996452 -0.02447,1.495575 0.01463,0.527998 0.02487,1.056148 0.0433,1.583979 0.02175,0.519525 0.05926,1.031298 0.03166,1.552726 0.0095,0.438144 0.01654,0.880771 -0.04198,1.315738 z" />
  </g>
</svg>
