<?xml version="1.0" encoding="UTF-8" standalone="no"?>
<!-- Created with Inkscape (http://www.inkscape.org/) -->

<svg
   width="210mm"
   height="297mm"
   viewBox="0 0 210 297"
   version="1.1"
   id="svg1"
   inkscape:version="1.4 (e7c3feb100, 2024-10-09)"
   sodipodi:docname="home.svg"
   xmlns:inkscape="http://www.inkscape.org/namespaces/inkscape"
   xmlns:sodipodi="http://sodipodi.sourceforge.net/DTD/sodipodi-0.dtd"
   xmlns="http://www.w3.org/2000/svg"
   xmlns:svg="http://www.w3.org/2000/svg">
  <sodipodi:namedview
     id="namedview1"
     pagecolor="#ffffff"
     bordercolor="#000000"
     borderopacity="0.25"
     inkscape:showpageshadow="2"
     inkscape:pageopacity="0.0"
     inkscape:pagecheckerboard="0"
     inkscape:deskcolor="#d1d1d1"
     inkscape:document-units="mm"
     inkscape:zoom="0.69381285"
     inkscape:cx="584.45156"
     inkscape:cy="343.03199"
     inkscape:window-width="1920"
     inkscape:window-height="1011"
     inkscape:window-x="0"
     inkscape:window-y="32"
     inkscape:window-maximized="1"
     inkscape:current-layer="layer1" />
  <defs
     id="defs1" />
  <g
     inkscape:label="Layer 1"
     inkscape:groupmode="layer"
     id="layer1">
    <path
       style="fill:#800000;stroke-width:0.264583"
       id="path2"
       d="m 58.684598,89.074037 c -1.402672,-4.038764 -2.445078,-8.298122 -2.632659,-12.58806 -0.04417,-1.010188 0.01371,-2.022258 0.02056,-3.033385 0.29787,-3.651371 0.826804,-7.346812 2.191197,-10.771026 0.605504,-1.519631 0.968187,-2.077127 1.735249,-3.456752 1.079619,-1.572453 2.429208,-3.208427 4.349599,-3.748495 0.318534,-0.08958 0.649319,-0.127839 0.973979,-0.191757 3.096889,-0.367672 6.210823,-0.236339 9.297894,0.132792 2.721896,0.320133 5.287942,1.282727 7.889357,2.084089 1.985737,0.531614 3.881728,1.304652 5.718661,2.216838 0.298945,0.169751 1.200682,0.670062 0.896835,0.509251 -0.792359,-0.419354 -1.526371,-0.961924 -2.362613,-1.28501 -0.363014,-0.14025 0.617154,0.474684 0.914643,0.72558 0.995987,0.840005 1.77654,1.771626 2.56802,2.800964 2.043226,2.995168 3.159688,6.455048 3.967366,9.955406 0.601472,2.805808 0.7279,5.665927 0.442394,8.513939 -0.04865,0.253582 -0.0973,0.507167 -0.145942,0.760749 0,0 3.428648,1.824119 3.428648,1.824119 v 0 c 0.04471,-0.268414 0.08942,-0.536829 0.134128,-0.805243 0.230254,-2.901477 0.104254,-5.815984 -0.492524,-8.672552 -0.80027,-3.520541 -1.898875,-6.99774 -3.843533,-10.071997 -0.608513,-0.83375 -0.924849,-1.328484 -1.635377,-2.068735 -1.934892,-2.015842 -4.458713,-3.275854 -6.890512,-4.596624 -1.840198,-0.886349 -3.745092,-1.607029 -5.719143,-2.141279 -2.596827,-0.803095 -5.172784,-1.722943 -7.896323,-2.001046 -3.131373,-0.342035 -6.298208,-0.437041 -9.43415,-0.07794 -0.342643,0.0795 -0.693523,0.129434 -1.027927,0.238516 -1.954437,0.637524 -3.286154,2.410047 -4.376494,4.038751 -0.730978,1.399773 -1.106361,2.028246 -1.688219,3.553359 -1.329404,3.484515 -1.810348,7.226668 -2.160495,10.916682 -0.01669,1.019829 -0.08498,2.040112 -0.0501,3.05948 0.146023,4.267645 1.186487,8.476893 2.350034,12.561925 z" />
    <path
       style="fill:#800000;stroke-width:0.264583"
       id="path3"
       d="m 79.656084,55.333354 c -0.217789,-1.501772 -0.326744,-3.018467 -0.185473,-4.530688 0.317201,-1.870101 1.078979,-2.56595 2.796302,-3.228403 1.619049,-0.545701 2.673043,-0.421246 4.213196,0.257254 2.071481,1.110957 -1.416357,-0.856837 -2.161712,-1.213681 -0.198077,-0.09483 0.333854,0.286034 0.489434,0.441024 0.514996,0.513045 0.80794,1.035836 1.100715,1.693862 0.464007,1.349238 0.539869,2.778485 0.57921,4.19203 -0.02888,1.10073 0.01818,2.190808 0.144113,3.283936 0.09359,0.719733 0.151725,1.4423 0.178096,2.167353 0,0 3.527407,1.782212 3.527407,1.782212 v 0 c -0.02347,-0.739394 -0.0699,-1.47647 -0.182428,-2.208498 -0.142303,-1.085659 -0.216723,-2.167056 -0.186698,-3.263561 -0.03899,-1.453915 -0.107355,-2.91647 -0.527262,-4.320384 -0.211018,-0.583274 -0.252145,-0.817626 -0.600485,-1.326563 -1.256863,-1.836314 -3.47853,-2.68593 -5.421725,-3.635158 -1.618808,-0.585044 -2.749888,-0.618767 -4.37805,-0.0072 -1.810094,0.783797 -2.63091,1.601703 -3.015032,3.585615 -0.172305,1.530276 -0.02228,3.053654 0.08177,4.585684 z" />
    <path
       style="fill:#800000;stroke-width:0.264583"
       id="path4"
       d="m 90.674864,43.485749 c -0.137875,-1.736995 0.220577,-3.702031 1.505727,-4.982683 0.299077,-0.29803 0.678032,-0.503333 1.017048,-0.754999 1.049663,-0.324888 1.055958,-0.42326 2.12529,-0.401762 0.24675,0.005 0.494884,0.03516 0.734237,0.09533 0.04964,0.01249 0.143962,0.144058 0.101917,0.114861 -4.73539,-3.288374 -4.498173,-3.011914 -0.657045,-0.946346 -0.886142,-0.797422 -1.353978,-2.083438 -0.619593,-3.180019 0.500417,-0.747223 1.049417,-0.85366 1.83139,-1.208643 1.155068,-0.381204 2.359493,-0.339791 3.555425,-0.378092 0.47492,-0.01521 1.10059,-0.004 1.56561,-0.183105 0.2813,-0.108318 0.53172,-0.284118 0.79758,-0.426175 1.43112,-0.860523 2.83379,-1.784583 4.38323,-2.424256 0.86228,-0.355986 1.23334,-0.444275 2.10539,-0.704723 0.30786,-0.104042 0.61572,-0.208084 0.92357,-0.312126 0,0 -3.19428,-2.164401 -3.19428,-2.164401 v 0 c -0.30288,0.103748 -0.60576,0.207495 -0.90863,0.311243 -0.86683,0.285552 -1.24924,0.391184 -2.10808,0.763593 -1.54652,0.670595 -2.94278,1.619084 -4.433709,2.397244 -0.255381,0.109421 -0.501391,0.244012 -0.766144,0.328264 -0.428889,0.13648 -1.057047,0.144004 -1.481328,0.16729 -1.225346,0.06725 -2.45596,0.08933 -3.6254,0.521317 -0.893741,0.451689 -1.43629,0.574942 -2.016339,1.441915 -0.785627,1.17425 -0.489966,2.614854 0.356428,3.627459 1.314061,0.754962 2.431389,2.384182 3.942178,2.264886 1.211837,-0.09569 -1.836349,-1.594162 -2.783292,-2.356395 -0.02524,-0.02032 -1.680123,0.110731 -1.892933,0.1685 -0.399224,0.108371 -0.770482,0.301413 -1.155724,0.452123 -0.356571,0.281606 -0.752773,0.519255 -1.069715,0.844825 -1.319059,1.354958 -1.757037,3.345952 -1.764533,5.174321 z" />
    <path
       style="fill:#800000;stroke-width:0.264583"
       id="path5"
       d="m 81.813335,81.652551 c -0.446931,-2.188742 -0.578254,-4.42041 -0.489394,-6.647844 0.126106,-1.499018 0.242342,-3.154627 1.179303,-4.408408 0.144675,-0.193593 0.326576,-0.356354 0.489863,-0.534533 1.133258,-0.980321 2.682587,-1.204309 4.135827,-1.209061 1.316328,0.193985 4.017901,1.436381 -1.666986,-1.268256 -0.214514,-0.102058 0.366725,0.304218 0.528023,0.478618 0.522105,0.564515 0.586981,0.795777 0.973516,1.498907 0.88437,1.989277 1.200994,4.166528 1.262952,6.327015 -0.01193,1.210379 -0.108144,2.417337 -0.190657,3.624279 0,0 3.476602,1.797494 3.476602,1.797494 v 0 c 0.06202,-1.226238 0.150746,-2.452066 0.156704,-3.680288 -0.06537,-2.203008 -0.373393,-4.423651 -1.194395,-6.481773 -0.142243,-0.306864 -0.261469,-0.625485 -0.426725,-0.920594 -1.182894,-2.11237 -3.698809,-3.502795 -6.080853,-3.656687 -1.540446,0.09561 -3.142612,0.37411 -4.300511,1.476592 -0.175995,0.200049 -0.371972,0.384154 -0.527986,0.600146 -0.956154,1.323761 -1.093571,3.038192 -1.207805,4.609169 -0.103851,2.235131 0.02582,4.462542 0.342355,6.678578 z" />
    <path
       style="fill:#800000;stroke-width:0.264583"
       id="path6"
       d="m 64.98759,74.150261 c -0.04606,-1.221494 -0.05701,-2.441342 0.07514,-3.657219 0.172934,-1.317606 0.820816,-1.827564 1.941409,-2.422744 1.196287,-0.592786 2.370592,-0.692158 3.677933,-0.630838 1.390592,0.117507 2.606699,0.834302 3.801248,1.500552 -5.346814,-3.05816 -2.769262,-1.850911 -1.892414,-0.775409 0.446209,0.547302 0.688115,1.146363 0.926108,1.801686 0.415044,1.292672 0.331835,2.33123 -0.385681,3.47889 -0.744188,0.961654 -1.835322,1.450509 -2.937052,1.884883 -0.914225,0.428162 -1.899301,0.583957 -2.895584,0.662633 -1.184352,0.127133 -2.261907,-0.181062 -3.313573,-0.693187 5.559639,3.05956 2.780482,1.931332 2.036805,0.849643 -0.341688,-0.496993 -0.400204,-0.969711 -0.426614,-1.553546 0.02792,-0.167986 0.05584,-0.335973 0.08376,-0.503957 0,0 -3.460102,-1.842272 -3.460102,-1.842272 v 0 c -0.03745,0.190878 -0.0749,0.381756 -0.112345,0.572635 -0.07074,3.083298 2.329331,3.361274 4.936133,4.903951 1.107911,0.464773 2.242211,0.69164 3.448629,0.542748 1.02533,-0.103621 2.026566,-0.317241 2.96494,-0.759897 1.152382,-0.505433 2.290564,-1.057314 3.058017,-2.097492 0.754655,-1.240628 0.952862,-2.376583 0.529111,-3.790262 -0.980308,-3.140765 -2.403269,-3.340465 -5.599978,-5.129477 -1.23485,-0.652134 -2.480074,-1.320165 -3.911629,-1.356521 -1.329158,-0.02432 -2.603404,0.166624 -3.791497,0.805857 -1.252554,0.710004 -1.916362,1.260319 -2.148221,2.736866 -0.129138,1.223293 -0.10813,2.445321 -0.134181,3.674038 z" />
    <path
       style="fill:#800000;stroke-width:0.264583"
       id="path7"
       d="m 66.633589,65.557338 c 0.288499,1.406779 0.64847,2.799075 0.952783,4.203266 0.268891,1.27685 0.567386,2.542083 0.736587,3.837337 0.05338,0.766773 0.246142,1.573496 0.0095,2.323134 0,0 3.462872,1.905574 3.462872,1.905574 v 0 c 0.274537,-0.807439 0.137044,-1.662922 0.04738,-2.495782 -0.190643,-1.309325 -0.452945,-2.598637 -0.764198,-3.883499 -0.297463,-1.382421 -0.652249,-2.75731 -0.886534,-4.150357 z" />
    <path
       style="fill:#800000;stroke-width:0.264583"
       id="path9"
       d="m 85.746338,74.050424 c -0.134155,0.02684 -0.271876,0.019 -0.407718,0.01487 0,0 3.1535,2.291152 3.1535,2.291152 v 0 c 0.149722,-0.0049 0.300029,-0.008 0.448659,0.01487 z" />
    <path
       style="fill:#800000;stroke-width:0.264583"
       id="path10"
       d="m 65.53497,73.429132 c 0.14505,-0.03095 0.312807,-0.06548 0.451906,-0.102921 0.714462,-0.192304 0.187502,-0.07712 0.989679,-0.271092 0.170254,-0.04117 0.970487,-0.214929 1.138095,-0.251534 1.180997,-0.295198 2.378252,-0.488526 3.58349,-0.648713 0.222398,-0.03569 0.444818,-0.07125 0.667195,-0.107074 0.806352,-0.129903 0.841184,-0.146461 1.675103,-0.237924 0.737378,-0.08088 1.478008,-0.124566 2.216954,-0.187749 0.639586,-0.05571 0.335521,-0.02963 0.912175,-0.07845 0,0 -3.124808,-2.215285 -3.124808,-2.215285 v 0 c -0.531781,0.08051 -0.252437,0.03778 -0.837996,0.128434 -1.513071,0.209622 -3.035324,0.342369 -4.548662,0.548609 -1.219001,0.153839 -2.42657,0.373718 -3.621669,0.660672 -0.922824,0.198946 -1.843082,0.405911 -2.777826,0.540049 z" />
  </g>
</svg>
